<svg width="581" height="580" viewBox="0 0 581 580" fill="none" xmlns="http://www.w3.org/2000/svg">
<g filter="url(#filter0_d_158_3251)">
<path opacity="0.2" d="M143.724 33.1901C124.16 60.5609 146.287 105.506 117.472 125.944C89.4186 145.839 55.5588 112.388 29.1501 129.489C-10.0343 154.858 -4.17297 272.88 51.9567 346.776C68.8366 368.995 83.045 377.72 89.1145 402.715C102.149 456.382 54.024 487.718 62.8405 514.287C82.6899 574.107 397.088 627.435 525.335 449.628C585.232 366.586 595.337 245.862 543.572 153.561C450.036 -13.2417 187.618 -28.2294 143.724 33.1901Z" fill="#F4F7FA"/>
<path opacity="0.2" d="M424.655 409.334C416.72 409.518 403.361 409.828 390.854 401.563C368.117 386.532 362.96 352.908 367.489 328.949C371.366 308.365 385.475 291.174 413.669 256.793C440.225 224.404 450.872 218.173 449.443 204.219C447.402 184.33 423.684 176.873 424.788 153.312C424.92 150.485 425.376 140.776 432.184 134.931C443.839 124.936 465.931 133.268 477.526 140.974C488.711 148.405 503.253 163.966 501.793 180.91C500.734 193.185 492.175 195.759 493.648 206.241C495.13 216.788 504.242 217.365 513.381 232.51C517.03 238.562 524.359 250.706 522.306 263.921C519.653 281.004 503.714 284.404 504.928 297.481C505.808 306.927 514.414 308.24 517.612 318.459C521.822 331.921 512.032 346.026 503.734 357.662C493.963 371.363 467.582 408.335 424.655 409.334Z" fill="white"/>
<g style="mix-blend-mode:screen" opacity="0.2">
<path d="M439.239 138.904C433.819 146.583 462.958 161.42 467.811 193.209C473.04 227.413 446.974 260.374 434.929 275.613C414.382 301.601 401.838 302.233 391.483 326.865C387.385 336.612 378.848 356.922 388.093 377.449C388.953 379.356 398.845 400.467 419.439 404.677C442.798 409.452 462.166 388.849 478.856 371.096C488.94 360.369 509.085 338.942 502.326 325.894C498.191 317.919 484.95 314.912 475.401 316.122C461.772 317.847 453.797 328.396 451.864 326.622C450.123 325.025 454.925 314.928 463.191 305.733C479.734 287.345 493.263 291.366 504.8 275.656C506.2 273.753 517.061 258.504 511.808 243.18C508.779 234.34 500.31 225.247 492.561 226.034C483.797 226.925 479.74 240.073 477.254 239.027C474.875 238.029 477.138 225.402 481.199 213.247C487.167 195.389 492.042 193.437 492.928 183.182C494.279 167.535 484.379 155.299 482.928 153.561C469.35 137.272 443.87 132.342 439.239 138.904Z" fill="white"/>
</g>
<path opacity="0.2" d="M451.688 423.051C445.333 421.048 434.633 417.677 426.937 407.721C412.947 389.62 417.957 361.507 428.063 343.69C436.735 328.393 452.599 318.545 484.324 298.864C514.2 280.329 524.359 278.263 526.996 266.793C530.771 250.437 513.934 238.089 521.21 219.676C522.081 217.467 525.075 209.886 532.071 207.075C544.045 202.282 559.335 214.893 566.46 224.155C573.342 233.077 580.67 249.378 574.923 262.447C570.754 271.913 563.256 271.64 561.582 280.368C559.901 289.151 566.984 292.076 570.137 306.586C571.399 312.383 573.929 324.017 568.709 333.959C561.974 346.809 548.38 345.2 545.8 355.918C543.937 363.669 550.421 367.037 550.19 376.022C549.888 387.852 538.282 396.419 528.529 403.413C517.051 411.653 486.066 433.884 451.688 423.051Z" fill="#D8DEE8"/>
<g style="mix-blend-mode:screen" opacity="0.2">
<path d="M536.588 212.129C530.2 216.764 549.329 236.445 544.572 263.02C539.453 291.615 509.804 310.749 496.102 319.585C472.726 334.679 462.587 331.772 447.682 348.549C441.784 355.186 429.494 369.011 431.276 387.819C431.441 389.567 433.576 409.032 448.799 417.944C466.064 428.065 487.04 416.94 505.114 407.355C516.037 401.563 537.853 389.991 536.015 377.794C534.89 370.337 525.186 364.361 517.271 362.735C505.975 360.416 496.791 366.627 495.73 364.699C494.781 362.957 501.33 356.236 510.394 351.17C528.527 341.041 538.184 347.906 551.619 338.542C553.252 337.408 566.011 328.233 565.993 314.635C565.993 306.79 561.719 297.271 555.348 295.798C548.143 294.132 541.353 303.479 539.66 301.976C538.027 300.536 543.26 291.117 549.782 282.56C559.374 269.988 563.77 269.755 567.256 261.845C572.562 249.78 568.023 237.369 567.344 235.604C560.97 218.979 542.06 208.166 536.588 212.129Z" fill="white"/>
</g>
<path d="M27.8271 221.763C27.8271 264.101 41.1314 303.375 63.689 335.705C63.7788 335.837 64.0972 335.964 64.0972 336.096C99.4917 387.929 160.142 421.511 228.182 421.511C233.747 421.511 239.076 421.25 244.525 420.491C244.548 420.491 244.558 420.824 244.58 420.824C247.262 420.601 249.923 420.499 252.572 420.171C253.515 420.061 254.456 420.022 255.393 419.889C256.225 419.779 257.052 419.706 257.876 419.577C258.597 419.471 259.305 419.373 260.021 419.265C260.183 419.239 260.344 419.22 260.503 419.2C262.25 418.91 263.991 418.613 265.726 418.28H265.752C358.252 400.62 428.145 319.355 428.145 221.755C428.145 201.119 425.145 181.212 419.337 162.483C418.426 159.548 417.296 156.645 416.541 153.769C414.281 148.976 412.767 144.275 410.69 139.661C409.853 137.815 408.928 135.989 408.036 134.154C403.172 124.212 397.492 114.691 391.055 105.687C390.471 104.872 389.869 104.056 389.275 103.256C386.91 100.042 384.443 96.8983 381.873 93.8265C378.032 89.2182 373.992 84.7886 369.752 80.5379C358.698 69.4488 346.385 59.6886 333.064 51.4558C328.934 48.9021 324.705 46.4979 320.376 44.2434C309.828 38.7382 298.804 34.1944 287.44 30.6671C268.171 24.6882 248.108 21.6569 227.931 21.6761C180.271 21.6761 136.501 38.316 102.124 66.1029C76.8402 86.5427 56.2766 113.004 43.3477 143.312C40.4538 150.08 38.4987 157.037 35.4864 164.162C35.4864 164.194 35.8313 164.217 35.8211 164.249C30.3475 182.468 27.8271 201.772 27.8271 221.763Z" fill="url(#paint0_linear_158_3251)"/>
<g style="mix-blend-mode:soft-light">
<g style="mix-blend-mode:soft-light">
<path d="M184.316 289.23C188.602 295.28 201.902 303.047 192.887 318.302C183.946 333.518 193.5 336.372 199.659 334.948C205.818 333.524 225.049 332.753 221.847 341.475C218.645 350.197 213.151 353.485 220.19 356.859C227.229 360.232 230.19 368.983 237.398 381.053C244.541 393.147 261.542 382.685 256.509 394.809C251.476 406.933 247.57 405.76 248.039 414.207C248.152 416.528 246.611 418.91 244.527 421.176C247.209 420.954 249.903 420.683 252.574 420.361C253.517 420.249 254.457 420.127 255.395 419.996C256.227 419.883 257.054 419.767 257.878 419.641C258.598 419.535 259.313 419.424 260.023 419.308C260.185 419.28 260.144 419.253 260.303 419.231C262.021 418.943 262.913 418.631 265.172 418.305C266.679 416.877 265.736 415.325 265.507 413.652C263.262 398.054 284.797 387.34 288.406 376.405C291.953 365.505 288.45 359 289.271 349.966C290.091 340.933 287.163 328.988 292.357 321.388C297.551 313.788 318.48 311.279 322.469 295.996C326.484 280.745 317.151 257.906 313.524 254.017C309.945 250.129 330.859 232.437 340.815 231.872C350.815 231.26 346.813 211.142 363.717 214.206C380.656 217.176 411.085 207.73 404.8 197.57C399.612 189.207 390.903 170.738 419.333 162.505C418.422 159.57 417.292 156.668 416.543 153.792C414.283 148.998 412.769 144.297 410.692 139.683C409.855 137.837 408.93 136.012 408.038 134.176C403.17 124.237 397.49 114.716 391.056 105.71C390.473 104.894 389.871 104.078 389.277 103.279C386.9 100.054 384.429 96.9058 381.864 93.8326C378.024 89.2243 373.983 84.7947 369.744 80.544C358.689 69.4549 346.376 59.6947 333.055 51.4619C327.425 55.4067 320.994 57.838 315.441 54.8417C301.822 47.2254 310.8 46.0546 316.375 45.7731C317.83 45.6814 319.222 45.1501 320.367 44.2495C309.819 38.7447 298.796 34.2009 287.432 30.6732C288.281 38.3568 298.728 50.697 291.04 49.1917C282.095 47.4906 278.442 23.3323 271.875 31.3586C265.213 39.4195 279.162 49.9831 266.06 43.8619C252.942 37.802 251.191 24.2808 236.568 30.8548C221.874 37.5205 223.217 45.408 219.114 44.6268C215.012 43.8456 201.816 52.7306 209.808 60.0327C217.874 67.3553 225.268 58.0257 237.36 55.2129C249.454 52.4307 249.16 62.3192 254.723 64.5792C260.383 66.7617 287.681 53.5791 294.381 65.493C301.155 77.3233 304.036 85.5637 293.973 85.2577C283.91 84.9518 283.281 82.3777 284.067 89.8002C284.852 97.2226 283.046 102.791 273.942 95.805C264.838 88.8191 266.903 82.0289 259.807 85.3516C252.711 88.6742 251.888 85.6677 244.337 80.1809C236.786 74.6941 226.868 74.1332 224.268 86.4244C221.668 98.7157 226.104 101.479 239.382 102.102C252.66 102.724 254.16 98.5607 258.389 109.649C262.617 120.736 280.154 134.992 295.567 140.856C310.979 146.72 316.984 155.43 316.629 167.156C316.273 178.882 322.051 191.298 325.912 181.615C329.774 171.933 340.668 155.552 351.764 166.481C362.86 177.41 382.232 196.793 360.848 200.34C339.509 203.946 350.643 183.967 339.86 187.961C329.076 191.955 346.682 200.789 339.482 203.968C332.282 207.148 329.249 205.676 329.306 215.497C329.363 225.318 326.916 234.846 318.165 230.68C309.414 226.515 298.183 207.287 285.53 218.671C272.877 230.054 273.758 228.598 267.113 225.273C260.468 221.948 256.244 231.904 253.521 236.436C250.799 240.969 240.125 236.341 231.48 249.825C222.835 263.31 219.439 265.712 209.582 260.86C199.724 256.007 195.704 259.612 193.132 266.42C190.561 273.229 184.495 266.575 181.569 275.572C178.642 284.569 180.05 283.168 184.316 289.23Z" fill="white"/>
</g>
<g style="mix-blend-mode:soft-light">
<path d="M150.55 125.87C157.54 110.88 122.906 112.565 116.784 113.718C110.627 114.738 96.1835 103.458 94.3488 98.216C92.4651 92.9311 89.3711 95.442 78.4137 95.291C67.4605 95.1748 77.1382 92.6986 89.1936 88.7273C101.249 84.756 90.9405 84.3684 102.031 75.6161C106.802 71.7814 105.296 68.526 102.118 66.1049C76.6356 86.6916 56.5799 113.197 43.7008 143.31C44.0309 143.203 44.3744 143.143 44.7212 143.132C52.3928 143.087 54.0826 126.137 58.0358 122.835C61.9318 119.539 57.9235 132.146 56.9704 137.317C56.0174 142.488 59.0725 138.133 62.8889 142.902C66.7053 147.671 73.6647 147.754 74.2912 140.609C74.9178 133.464 79.9546 126.478 90.1589 123.221C100.363 119.963 109.192 122.639 117.484 125.836C125.747 128.983 143.519 140.74 150.55 125.87Z" fill="white"/>
</g>
<g style="mix-blend-mode:soft-light">
<path d="M63.6094 336.096C62.9176 330.952 61.787 325.633 63.938 323.689C69.1646 318.842 70.3055 305.635 68.4932 298.945C66.6809 292.255 52.6031 292.622 62.1665 281.479C71.7585 270.306 80.3852 257.044 76.3607 249.456C72.3361 241.868 73.5565 241.33 81.0995 241.375C88.6425 241.419 91.963 241.752 99.4836 235.037C107.01 228.235 117.363 251.092 145.693 232.761C174.016 214.249 157.887 183.045 147.272 182.968C136.592 182.79 124.115 177.399 132.866 164.382C141.591 151.316 127.956 149.47 121.294 152.439C114.621 155.375 102.788 147.487 90.7263 143.93C78.6648 140.373 79.171 160.072 72.4586 164.011C65.7074 167.955 53.0603 164.827 46.4867 158.522C41.7927 154.024 40.7723 159.27 36.1273 164.249C30.5386 182.911 27.7093 202.289 27.7291 221.769C27.721 264.272 40.9845 303.692 63.6094 336.096Z" fill="white"/>
</g>
<g style="mix-blend-mode:soft-light">
<path d="M114.278 100.921C114.278 100.908 105.445 96.9269 108.643 90.5181C111.841 84.1094 116.841 64.4344 120.515 70.631C124.188 76.8276 118.761 88.9435 119.951 94.159C121.141 99.3745 121.184 102.124 114.278 100.921Z" fill="white"/>
</g>
<g style="mix-blend-mode:soft-light">
<path d="M123.09 94.9178C123.215 92.8495 121.913 84.4541 128.523 84.7192C128.511 84.705 138.084 88.6987 132.484 95.4828C126.884 102.267 122.947 96.9799 123.09 94.9178Z" fill="white"/>
</g>
</g>
<path style="mix-blend-mode:multiply" opacity="0.3" d="M28.3598 221.414C28.3598 263.752 41.3967 303.027 63.9564 335.354C64.0412 335.468 64.0903 335.605 64.0972 335.748C100.245 387.579 160.407 421.007 228.443 421.007C234 420.995 239.549 420.602 245.052 419.832C245.074 419.832 245.086 420.326 245.109 420.326C247.791 420.106 250.452 420.079 253.101 419.751C254.044 419.641 254.985 419.645 255.921 419.512C256.752 419.4 257.578 419.347 258.405 419.218C259.125 419.114 259.834 419.037 260.55 418.921C260.711 418.894 260.87 418.88 261.032 418.857C262.779 418.57 264.517 418.272 266.252 417.94H266.281C351.823 401.618 418.014 330.84 427.506 243.102C407.449 300.606 357.848 343.813 296.869 355.855H296.847C295.351 356.608 293.849 356.457 292.34 356.706C292.202 356.722 292.057 356.771 291.918 356.793C291.306 356.893 290.693 356.997 290.067 357.083C289.359 357.193 288.638 357.287 287.922 357.377C287.106 357.495 286.304 357.564 285.489 357.658C283.201 357.94 280.905 358.462 278.589 358.649C278.567 358.649 278.556 358.866 278.54 358.866C273.834 358.866 269.152 359.245 264.34 359.245C234.964 359.245 207.28 351.78 183.059 338.901C158.896 326.024 138.156 307.57 122.562 285.073C122.562 284.957 122.374 284.802 122.3 284.686C102.818 256.772 91.4181 222.832 91.4181 186.272C91.4021 169.449 93.847 152.715 98.6754 136.599C98.6754 136.573 98.7448 136.538 98.7448 136.511C100.251 130.362 102.678 124.353 105.171 118.509C114.796 95.9585 129.106 75.7093 147.151 59.1027C165.197 42.4962 186.568 29.9114 209.847 22.1819C170.594 25.787 133.293 40.9493 102.665 65.75C77.3791 86.1899 56.9256 112.653 43.9886 142.959C41.0947 149.729 39.2498 156.686 36.2334 163.809C36.2334 163.841 36.4681 163.864 36.4579 163.896C30.9904 182.117 28.3598 201.421 28.3598 221.414Z" fill="url(#paint1_linear_158_3251)"/>
<path d="M281.481 265.604H281.518C282.112 265.604 282.575 264.992 282.554 264.405C281.401 230.827 290.026 204.003 308.194 184.771C336.241 155.081 377.809 153.761 378.218 153.751C378.354 153.758 378.49 153.737 378.618 153.689C378.745 153.641 378.862 153.568 378.96 153.473C379.058 153.379 379.136 153.265 379.189 153.14C379.241 153.014 379.267 152.879 379.266 152.743C379.264 152.606 379.235 152.472 379.179 152.348C379.123 152.223 379.043 152.111 378.942 152.019C378.842 151.927 378.723 151.857 378.594 151.812C378.466 151.768 378.329 151.75 378.193 151.76H378.169C377.742 151.76 335.28 153.007 306.626 183.341C288.055 203.006 279.228 230.35 280.403 264.521C280.411 264.805 280.526 265.076 280.727 265.277C280.927 265.478 281.197 265.595 281.481 265.604Z" fill="white"/>
<path d="M222.023 304.091C222.272 304.091 222.514 304.003 222.706 303.844C222.898 303.685 223.029 303.463 223.076 303.218C225.808 289 232.229 278.595 242.162 272.294C260.083 260.927 283.667 266.765 283.903 266.824C284.04 266.859 284.182 266.867 284.322 266.847C284.462 266.827 284.596 266.779 284.717 266.708C284.839 266.636 284.945 266.541 285.029 266.428C285.114 266.315 285.176 266.187 285.211 266.05C285.246 265.913 285.253 265.771 285.233 265.632C285.213 265.492 285.166 265.358 285.094 265.236C285.022 265.115 284.927 265.009 284.814 264.925C284.701 264.84 284.573 264.778 284.436 264.743C283.438 264.489 259.742 258.61 241.023 270.473C230.562 277.102 223.815 287.982 220.966 302.815C220.939 302.953 220.94 303.095 220.968 303.234C220.997 303.372 221.052 303.503 221.131 303.62C221.211 303.736 221.312 303.836 221.43 303.914C221.548 303.991 221.68 304.045 221.819 304.071C221.886 304.085 221.954 304.092 222.023 304.091Z" fill="white"/>
<path d="M219.91 306.364C220.186 306.363 220.45 306.257 220.649 306.067C220.849 305.877 220.968 305.618 220.982 305.344C220.998 305.089 222.431 279.389 211.686 252.876C205.359 237.269 196.116 224.425 184.214 214.699C169.344 202.551 150.283 195.281 127.558 193.097C127.416 193.08 127.271 193.092 127.134 193.132C126.996 193.172 126.868 193.238 126.757 193.328C126.645 193.418 126.553 193.53 126.485 193.656C126.417 193.782 126.376 193.92 126.362 194.062C126.348 194.205 126.363 194.349 126.406 194.485C126.449 194.622 126.518 194.749 126.611 194.858C126.703 194.967 126.816 195.057 126.944 195.122C127.072 195.187 127.211 195.226 127.354 195.236C167.85 199.128 195.555 218.793 209.694 253.684C220.259 279.747 218.855 304.962 218.839 305.213C218.829 305.355 218.847 305.498 218.892 305.632C218.937 305.767 219.009 305.892 219.103 305.999C219.196 306.106 219.31 306.193 219.438 306.256C219.566 306.318 219.705 306.355 219.847 306.364H219.91Z" fill="white"/>
<path d="M277.851 273.115C273.008 271.11 270.708 265.561 272.714 260.72C274.72 255.88 280.273 253.581 285.116 255.586C289.959 257.591 292.259 263.141 290.253 267.981C288.247 272.822 282.694 275.12 277.851 273.115Z" fill="url(#paint2_linear_158_3251)"/>
<path d="M215.31 309.723C211.603 306.019 211.603 300.012 215.31 296.307C219.016 292.603 225.026 292.603 228.733 296.307C232.44 300.012 232.44 306.019 228.733 309.723C225.026 313.428 219.016 313.428 215.31 309.723Z" fill="url(#paint3_linear_158_3251)"/>
<path d="M118.496 197.324C116.761 192.38 119.364 186.966 124.311 185.232C129.258 183.498 134.675 186.1 136.41 191.044C138.145 195.988 135.542 201.401 130.595 203.136C125.648 204.87 120.232 202.268 118.496 197.324Z" fill="url(#paint4_linear_158_3251)"/>
<path d="M377.713 162.111C372.478 161.85 368.445 157.396 368.707 152.163C368.968 146.93 373.425 142.9 378.661 143.161C383.896 143.423 387.929 147.877 387.667 153.11C387.406 158.342 382.949 162.373 377.713 162.111Z" fill="url(#paint5_linear_158_3251)"/>
<path d="M369.344 24.4868C372.902 20.6766 377.206 17.6384 381.988 15.5611C386.771 13.4838 391.93 12.4118 397.144 12.4117H403.267C404.131 12.4118 404.98 12.6314 405.735 13.0499C406.49 13.4684 407.126 14.072 407.584 14.8039C408.041 15.5359 408.305 16.3721 408.35 17.2339C408.395 18.0956 408.219 18.9547 407.841 19.7302L378.23 80.3645H317.163L369.344 24.4868Z" fill="url(#paint6_linear_158_3251)"/>
<path d="M251.901 93.7592C255.666 86.2407 261.451 79.918 268.608 75.499C275.765 71.0799 284.012 68.739 292.424 68.7381H406.9C410.645 68.738 414.32 67.7212 417.533 65.7964C420.745 63.8716 423.374 61.1111 425.139 57.8094L437.419 34.8424C438.186 33.4066 439.329 32.2062 440.726 31.3691C442.123 30.5321 443.721 30.0899 445.35 30.0898H457.464C457.712 30.0894 457.956 30.1523 458.173 30.2726C458.39 30.3929 458.573 30.5666 458.704 30.7772C458.835 30.9879 458.91 31.2284 458.922 31.4762C458.934 31.7239 458.882 31.9706 458.772 32.1928L430.404 89.7124C428.45 93.6714 425.427 97.0051 421.676 99.3365C417.925 101.668 413.596 102.904 409.179 102.905H257.556C256.479 102.904 255.419 102.628 254.478 102.103C253.538 101.579 252.747 100.822 252.18 99.9062C251.614 98.9901 251.291 97.9447 251.242 96.8689C251.193 95.7932 251.42 94.7228 251.901 93.7592Z" fill="url(#paint7_linear_158_3251)"/>
<path d="M330.043 84.1747H374.738C375.787 84.175 376.814 84.4696 377.704 85.0249C378.593 85.5802 379.308 86.374 379.769 87.3158L406.261 141.572C406.806 142.691 407.057 143.929 406.991 145.172C406.925 146.414 406.545 147.62 405.885 148.675C405.226 149.73 404.309 150.601 403.22 151.204C402.132 151.808 400.908 152.126 399.663 152.127H397.148C391.934 152.127 386.775 151.055 381.992 148.978C377.21 146.901 372.906 143.863 369.348 140.052L325.955 93.5879C322.612 90.0103 325.155 84.1747 330.043 84.1747Z" fill="url(#paint8_linear_158_3251)"/>
<path d="M282.928 87.6381H255.607C259.801 81.7914 265.328 77.0275 271.73 73.7407C278.133 70.454 285.226 68.7392 292.424 68.7382H299.924L292.34 82.1431C291.399 83.8098 290.031 85.1968 288.378 86.1622C286.724 87.1277 284.843 87.637 282.928 87.6381Z" fill="url(#paint9_linear_158_3251)"/>
<path opacity="0.2" d="M276.058 405.75C326.531 405.75 373.985 386.106 409.675 350.435C445.366 314.765 465.021 267.34 465.021 216.894C465.021 179.049 453.86 142.535 432.745 111.299C431.774 109.862 430.271 108.869 428.568 108.54C426.864 108.21 425.1 108.571 423.662 109.541C422.225 110.512 421.232 112.014 420.902 113.716C420.572 115.419 420.933 117.182 421.904 118.619C441.551 147.685 451.937 181.668 451.937 216.894C451.937 313.819 373.038 392.674 276.058 392.674C251.398 392.654 227.017 387.461 204.491 377.431C181.965 367.401 161.797 352.757 145.29 334.446C144.13 333.157 142.505 332.382 140.772 332.291C139.04 332.2 137.342 332.8 136.053 333.96C134.763 335.12 133.987 336.744 133.896 338.475C133.805 340.207 134.405 341.904 135.566 343.192C152.948 362.563 174.161 378.121 197.865 388.882C222.486 400.072 248.795 405.75 276.058 405.75Z" fill="#D8DEE8"/>
<path d="M295.447 543.581C432.861 544.64 537.245 543.469 543.804 484.962C547.588 451.209 507.987 364.565 484.019 336.959C446.131 293.309 385.309 291.16 302.098 288.843C223.847 286.664 175.626 285.32 137.55 319.03C101.953 350.54 63.4135 473.028 85.5813 503.293C106.151 531.372 164.25 542.561 295.447 543.581Z" fill="url(#paint10_linear_158_3251)"/>
<path d="M348.013 288.696L364.099 292.812C365.014 293.046 365.861 293.493 366.57 294.118C367.278 294.743 367.828 295.527 368.174 296.405C368.52 297.284 368.653 298.232 368.56 299.172C368.468 300.112 368.154 301.016 367.644 301.811C356.691 318.879 327.68 361.74 309.512 366.78C290.736 371.993 255.644 317.684 243.97 298.572C243.499 297.8 243.209 296.932 243.123 296.032C243.037 295.132 243.157 294.224 243.473 293.378C243.79 292.531 244.295 291.767 244.95 291.144C245.605 290.521 246.394 290.055 247.256 289.781L259.056 286.028C268.71 282.956 278.871 281.796 288.969 282.613L332.953 286.171C338.036 286.584 343.074 287.429 348.013 288.696Z" fill="url(#paint11_linear_158_3251)"/>
<path d="M336.072 226.258C336.072 226.258 327.231 289.832 339.458 295.904L304.653 333.808L269.397 288.908C269.397 288.908 282.724 278.877 279.214 226.258H336.072Z" fill="white"/>
<path d="M331.553 239.304C331.553 239.304 316.247 267.703 282.732 267.316C252.731 266.965 244.772 200.177 263.103 184.936C269.226 179.851 281.879 177.199 292.412 179.551C298.632 180.94 300.843 183.376 311.051 185.446C320.469 187.361 331.619 184.465 334.549 186.67C338.223 189.436 332.586 198.253 327.776 218.159C333.174 212.082 339.903 209.5 344.878 211.53C346.587 212.343 348.037 213.614 349.068 215.201C353.658 222.63 347.182 232.781 331.553 239.304Z" fill="white"/>
<path d="M327.104 184.318C325.72 185.47 330.414 190.61 331.149 198.204C332.578 212.945 318.565 231.476 303.381 233.795C294.401 235.164 291.634 229.863 276.632 229.081C269.317 228.722 261.993 229.539 254.937 231.5C251.115 247.953 256.39 263.871 267.627 270.787C279.724 278.234 294.363 272.543 300.485 270.175C304.579 268.582 317.702 263.51 324.029 250.896C330.621 237.75 323.071 230.442 330.955 221.369C334.931 216.792 340.357 214.614 345.29 205.9C346.347 204.024 347.257 202.069 348.013 200.052C339.87 192.293 329.11 182.65 327.104 184.318Z" fill="url(#paint12_linear_158_3251)"/>
<path d="M266.115 236.926C266.115 236.926 272.752 239.953 283.871 238.731C284.412 238.67 285.02 238.796 285.095 239.074C285.408 240.118 278.501 245.246 271.805 243.745C267.052 242.678 263.17 238.441 263.742 237.279C263.999 236.789 265.062 236.795 266.115 236.926Z" fill="white"/>
<path d="M351.362 192.689C351.362 192.689 349.958 205.806 343.403 202.243C319.27 189.115 271.675 176.098 257.623 190.119C257.623 190.119 250.04 128.149 309.567 132.395C334.215 134.158 346.276 146.522 352.088 159.58C359.185 175.517 351.362 192.689 351.362 192.689Z" fill="url(#paint13_linear_158_3251)"/>
<path d="M330.761 195.753C332.27 196.161 309.549 178.321 309.549 178.321C309.549 178.321 287.565 162.616 247.415 170.307C227.378 174.146 257.895 190.119 257.895 190.119C257.895 190.119 263.472 177.079 330.761 195.753Z" fill="url(#paint14_linear_158_3251)"/>
<path d="M149.721 554.014L379.55 565.121V333.808L149.721 344.916V554.014Z" fill="url(#paint15_linear_158_3251)"/>
<path d="M379.55 565.121L461.966 549.292V348.573L379.55 333.808V565.121Z" fill="url(#paint16_linear_158_3251)"/>
<g style="mix-blend-mode:soft-light">
<path d="M305.877 337.74V373.904L244.352 376.591V341.461L305.877 337.74Z" fill="white"/>
</g>
<g style="mix-blend-mode:soft-light">
<path d="M444.331 345.414L409.81 339.229V374.847L444.331 378.59V345.414Z" fill="white"/>
</g>
<path d="M466.995 461.308C466.995 461.308 467.26 423.624 455.86 413.108C444.459 402.591 430.843 404.337 427.567 403.468C424.292 402.599 437.847 417.05 440.076 435.455C442.304 453.859 455.343 457.802 466.995 461.308Z" fill="white"/>
<path d="M144.693 479.006C144.693 479.006 156.605 455.185 174.934 449.465C193.263 443.746 185.932 449.922 174.934 464.235C163.936 478.547 163.938 499.615 153.856 502.363C143.774 505.11 139.664 493.662 144.693 479.006Z" fill="white"/>
</g>
<defs>
<filter id="filter0_d_158_3251" x="0" y="0" width="580.998" height="579.119" filterUnits="userSpaceOnUse" color-interpolation-filters="sRGB">
<feFlood flood-opacity="0" result="BackgroundImageFix"/>
<feColorMatrix in="SourceAlpha" type="matrix" values="0 0 0 0 0 0 0 0 0 0 0 0 0 0 0 0 0 0 127 0" result="hardAlpha"/>
<feOffset dy="4"/>
<feGaussianBlur stdDeviation="2"/>
<feComposite in2="hardAlpha" operator="out"/>
<feColorMatrix type="matrix" values="0 0 0 0 0 0 0 0 0 0 0 0 0 0 0 0 0 0 0.25 0"/>
<feBlend mode="normal" in2="BackgroundImageFix" result="effect1_dropShadow_158_3251"/>
<feBlend mode="normal" in="SourceGraphic" in2="effect1_dropShadow_158_3251" result="shape"/>
</filter>
<linearGradient id="paint0_linear_158_3251" x1="233.903" y1="155.791" x2="214.159" y2="374.314" gradientUnits="userSpaceOnUse">
<stop stop-color="#E38DDD"/>
<stop offset="1" stop-color="#9571F6"/>
</linearGradient>
<linearGradient id="paint1_linear_158_3251" x1="427.506" y1="221.596" x2="28.3598" y2="221.596" gradientUnits="userSpaceOnUse">
<stop stop-color="#FFC444"/>
<stop offset="1" stop-color="#F36F56"/>
</linearGradient>
<linearGradient id="paint2_linear_158_3251" x1="426.313" y1="200.883" x2="-69.451" y2="418.387" gradientUnits="userSpaceOnUse">
<stop stop-color="#444B8C"/>
<stop offset="1" stop-color="#26264F"/>
</linearGradient>
<linearGradient id="paint3_linear_158_3251" x1="-13353.8" y1="19963.4" x2="-59469.3" y2="40195.3" gradientUnits="userSpaceOnUse">
<stop stop-color="#444B8C"/>
<stop offset="1" stop-color="#26264F"/>
</linearGradient>
<linearGradient id="paint4_linear_158_3251" x1="-18592.2" y1="8129.97" x2="-64708.3" y2="28362.2" gradientUnits="userSpaceOnUse">
<stop stop-color="#444B8C"/>
<stop offset="1" stop-color="#26264F"/>
</linearGradient>
<linearGradient id="paint5_linear_158_3251" x1="-16001.6" y1="13421.7" x2="-62117.5" y2="33653.9" gradientUnits="userSpaceOnUse">
<stop stop-color="#444B8C"/>
<stop offset="1" stop-color="#26264F"/>
</linearGradient>
<linearGradient id="paint6_linear_158_3251" x1="369.666" y1="5.65012" x2="359.865" y2="67.4365" gradientUnits="userSpaceOnUse">
<stop stop-color="#FFC444"/>
<stop offset="0.31" stop-color="#FBA94A"/>
<stop offset="1" stop-color="#F36F56"/>
</linearGradient>
<linearGradient id="paint7_linear_158_3251" x1="-208841" y1="16270.8" x2="-227540" y2="97841.8" gradientUnits="userSpaceOnUse">
<stop stop-color="#FFC444"/>
<stop offset="0.31" stop-color="#FBA94A"/>
<stop offset="1" stop-color="#F36F56"/>
</linearGradient>
<linearGradient id="paint8_linear_158_3251" x1="-110972" y1="63161.2" x2="-92850.4" y2="38484.9" gradientUnits="userSpaceOnUse">
<stop stop-color="#FFC444"/>
<stop offset="0.31" stop-color="#FBA94A"/>
<stop offset="1" stop-color="#F36F56"/>
</linearGradient>
<linearGradient id="paint9_linear_158_3251" x1="273.285" y1="68.4281" x2="286.773" y2="97.8526" gradientUnits="userSpaceOnUse">
<stop stop-color="#311944"/>
<stop offset="1" stop-color="#6B3976"/>
</linearGradient>
<linearGradient id="paint10_linear_158_3251" x1="381.564" y1="744.839" x2="337.573" y2="576.543" gradientUnits="userSpaceOnUse">
<stop stop-color="#FF9085"/>
<stop offset="1" stop-color="#FB6FBB"/>
</linearGradient>
<linearGradient id="paint11_linear_158_3251" x1="308.628" y1="449.09" x2="304.686" y2="233.634" gradientUnits="userSpaceOnUse">
<stop stop-color="#311944"/>
<stop offset="0.56" stop-color="#6F2B60"/>
<stop offset="1" stop-color="#A03976"/>
</linearGradient>
<linearGradient id="paint12_linear_158_3251" x1="-21800" y1="130092" x2="-58598.7" y2="45583" gradientUnits="userSpaceOnUse">
<stop stop-color="#311944"/>
<stop offset="1" stop-color="#6B3976"/>
</linearGradient>
<linearGradient id="paint13_linear_158_3251" x1="-137383" y1="38164" x2="-128967" y2="86426.2" gradientUnits="userSpaceOnUse">
<stop stop-color="#311944"/>
<stop offset="0.56" stop-color="#6F2B60"/>
<stop offset="1" stop-color="#A03976"/>
</linearGradient>
<linearGradient id="paint14_linear_158_3251" x1="-134582" y1="22303.4" x2="-132525" y2="33097.1" gradientUnits="userSpaceOnUse">
<stop stop-color="#FF9085"/>
<stop offset="1" stop-color="#FB6FBB"/>
</linearGradient>
<linearGradient id="paint15_linear_158_3251" x1="-306500" y1="405418" x2="-502173" y2="882823" gradientUnits="userSpaceOnUse">
<stop stop-color="#FFC444"/>
<stop offset="0.31" stop-color="#FBA94A"/>
<stop offset="1" stop-color="#F36F56"/>
</linearGradient>
<linearGradient id="paint16_linear_158_3251" x1="-23321.6" y1="586855" x2="-103746" y2="569081" gradientUnits="userSpaceOnUse">
<stop stop-color="#FFC444"/>
<stop offset="0.31" stop-color="#FBA94A"/>
<stop offset="1" stop-color="#F36F56"/>
</linearGradient>
</defs>
</svg>
