<svg width="52" height="48" viewBox="0 0 52 48" fill="none" xmlns="http://www.w3.org/2000/svg">
<path fill-rule="evenodd" clip-rule="evenodd" d="M23.8852 0C37.077 0 47.7703 10.6934 47.7703 23.8852C47.7703 37.077 37.077 47.7703 23.8852 47.7703C10.6934 47.7703 0 37.077 0 23.8852C0 10.6934 10.6934 0 23.8852 0ZM23.8852 9.30089C31.9401 9.30089 38.4694 15.8302 38.4694 23.8852C38.4694 31.9401 31.9401 38.4694 23.8852 38.4694C15.8302 38.4694 9.30089 31.9401 9.30089 23.8852C9.30089 15.8302 15.8302 9.30089 23.8852 9.30089Z" fill="url(#paint0_linear_6693_1040)"/>
<path fill-rule="evenodd" clip-rule="evenodd" d="M51.0881 0.253169L42.3568 8.74123C40.2765 6.20614 37.6831 4.10577 34.7366 2.60004L37.1684 0.251503H51.0881V0.253169ZM35.6493 15.2622L27.3645 23.3155L49.8855 47.1773H36.5921L13.693 22.9158L27.3628 9.71895C30.7391 10.5451 33.6523 12.5455 35.6477 15.2622H35.6493Z" fill="url(#paint1_linear_6693_1040)"/>
<path opacity="0.2" fill-rule="evenodd" clip-rule="evenodd" d="M40.4714 41.0711C38.4743 42.9983 36.1408 44.5823 33.5707 45.7232L26.6816 38.1996C29.5832 37.6366 32.1766 36.2142 34.1886 34.2087L40.4731 41.0711H40.4714Z" fill="#1F2428"/>
<path opacity="0.2" fill-rule="evenodd" clip-rule="evenodd" d="M26.6083 10.4485C29.9795 11.2846 32.8877 13.2917 34.8748 16.015L35.6494 15.2622C33.6539 12.5455 30.7407 10.5451 27.3645 9.71895L26.6083 10.4485Z" fill="#1F2428"/>
<defs>
<linearGradient id="paint0_linear_6693_1040" x1="0.612057" y1="47.7703" x2="54.7001" y2="37.8739" gradientUnits="userSpaceOnUse">
<stop stop-color="#5B52A3"/>
<stop offset="1" stop-color="#40B8EA"/>
</linearGradient>
<linearGradient id="paint1_linear_6693_1040" x1="13.693" y1="22.9157" x2="49.9521" y2="22.9157" gradientUnits="userSpaceOnUse">
<stop stop-color="#54E1AB"/>
<stop offset="1" stop-color="#7EEEC1"/>
</linearGradient>
</defs>
</svg>
